<svg width="145" height="19" viewBox="0 0 145 19" fill="none" xmlns="http://www.w3.org/2000/svg">
<path d="M35.21 10.66H32.662V13.166H31.486V10.66H28.938V9.554H31.486V7.034H32.662V9.554H35.21V10.66ZM43.8237 5.2V6.152L39.8617 15H38.3777L42.2557 6.418H37.7757V8.168H36.4317V5.2H43.8237ZM51.9887 5.088C53.3047 5.088 54.3173 5.51267 55.0267 6.362C55.7453 7.21133 56.1047 8.41533 56.1047 9.974C56.1047 11.066 55.9087 11.9993 55.5167 12.774C55.134 13.5393 54.5927 14.1227 53.8927 14.524C53.202 14.916 52.3947 15.112 51.4707 15.112C50.9947 15.112 50.5467 15.0653 50.1267 14.972C49.7067 14.8693 49.3427 14.7247 49.0347 14.538L49.5667 13.446C50.0427 13.754 50.6727 13.908 51.4567 13.908C52.474 13.908 53.2673 13.5953 53.8367 12.97C54.4153 12.3353 54.7047 11.416 54.7047 10.212V9.862C54.4247 10.282 54.0373 10.604 53.5427 10.828C53.048 11.0427 52.4927 11.15 51.8767 11.15C51.2327 11.15 50.654 11.0287 50.1407 10.786C49.6367 10.5433 49.24 10.198 48.9507 9.75C48.6707 9.29267 48.5307 8.77 48.5307 8.182C48.5307 7.566 48.68 7.02467 48.9787 6.558C49.2867 6.09133 49.702 5.732 50.2247 5.48C50.7473 5.21867 51.3353 5.088 51.9887 5.088ZM52.1147 10.016C52.5533 10.016 52.9453 9.932 53.2907 9.764C53.636 9.596 53.902 9.36733 54.0887 9.078C54.2847 8.78867 54.3827 8.46667 54.3827 8.112C54.3827 7.76667 54.2893 7.454 54.1027 7.174C53.9253 6.88467 53.6593 6.656 53.3047 6.488C52.9593 6.31067 52.5393 6.222 52.0447 6.222C51.4007 6.222 50.878 6.39467 50.4767 6.74C50.0847 7.08533 49.8887 7.54733 49.8887 8.126C49.8887 8.70467 50.0893 9.16667 50.4907 9.512C50.892 9.848 51.4333 10.016 52.1147 10.016ZM61.6793 9.05C62.3233 9.05 62.8973 9.17133 63.4013 9.414C63.9146 9.65667 64.316 10.0067 64.6053 10.464C64.8946 10.912 65.0393 11.43 65.0393 12.018C65.0393 12.634 64.8853 13.1753 64.5773 13.642C64.2786 14.1087 63.8633 14.4727 63.3313 14.734C62.8086 14.986 62.2206 15.112 61.5673 15.112C60.2513 15.112 59.234 14.6873 58.5153 13.838C57.806 12.9887 57.4513 11.7847 57.4513 10.226C57.4513 9.134 57.6426 8.20533 58.0253 7.44C58.4173 6.66533 58.9586 6.082 59.6493 5.69C60.3493 5.28867 61.1613 5.088 62.0853 5.088C62.5613 5.088 63.0093 5.13933 63.4293 5.242C63.8493 5.33533 64.2133 5.47533 64.5213 5.662L63.9893 6.754C63.5226 6.446 62.8973 6.292 62.1133 6.292C61.096 6.292 60.298 6.60933 59.7193 7.244C59.1406 7.86933 58.8513 8.784 58.8513 9.988C58.8513 10.1373 58.856 10.254 58.8653 10.338C59.1453 9.918 59.528 9.60067 60.0133 9.386C60.508 9.162 61.0633 9.05 61.6793 9.05ZM61.5113 13.978C62.1553 13.978 62.678 13.8053 63.0793 13.46C63.4806 13.1147 63.6813 12.6527 63.6813 12.074C63.6813 11.4953 63.476 11.038 63.0653 10.702C62.664 10.3567 62.1226 10.184 61.4413 10.184C61.0026 10.184 60.6106 10.268 60.2653 10.436C59.9293 10.604 59.6633 10.8327 59.4673 11.122C59.2806 11.4113 59.1873 11.7333 59.1873 12.088C59.1873 12.4333 59.276 12.7507 59.4533 13.04C59.64 13.32 59.906 13.5487 60.2513 13.726C60.606 13.894 61.026 13.978 61.5113 13.978ZM74.6179 12.592H72.7559V15H71.3979V12.592H65.9519V11.612L70.9639 5.2H72.4759L67.6739 11.388H71.4399V9.26H72.7559V11.388H74.6179V12.592ZM82.3949 5.088C83.7109 5.088 84.7236 5.51267 85.4329 6.362C86.1516 7.21133 86.5109 8.41533 86.5109 9.974C86.5109 11.066 86.3149 11.9993 85.9229 12.774C85.5403 13.5393 84.9989 14.1227 84.2989 14.524C83.6083 14.916 82.8009 15.112 81.8769 15.112C81.4009 15.112 80.9529 15.0653 80.5329 14.972C80.1129 14.8693 79.7489 14.7247 79.4409 14.538L79.9729 13.446C80.4489 13.754 81.0789 13.908 81.8629 13.908C82.8803 13.908 83.6736 13.5953 84.2429 12.97C84.8216 12.3353 85.1109 11.416 85.1109 10.212V9.862C84.8309 10.282 84.4436 10.604 83.9489 10.828C83.4543 11.0427 82.8989 11.15 82.2829 11.15C81.6389 11.15 81.0603 11.0287 80.5469 10.786C80.0429 10.5433 79.6463 10.198 79.3569 9.75C79.0769 9.29267 78.9369 8.77 78.9369 8.182C78.9369 7.566 79.0863 7.02467 79.3849 6.558C79.6929 6.09133 80.1083 5.732 80.6309 5.48C81.1536 5.21867 81.7416 5.088 82.3949 5.088ZM82.5209 10.016C82.9596 10.016 83.3516 9.932 83.6969 9.764C84.0423 9.596 84.3083 9.36733 84.4949 9.078C84.6909 8.78867 84.7889 8.46667 84.7889 8.112C84.7889 7.76667 84.6956 7.454 84.5089 7.174C84.3316 6.88467 84.0656 6.656 83.7109 6.488C83.3656 6.31067 82.9456 6.222 82.4509 6.222C81.8069 6.222 81.2843 6.39467 80.8829 6.74C80.4909 7.08533 80.2949 7.54733 80.2949 8.126C80.2949 8.70467 80.4956 9.16667 80.8969 9.512C81.2983 9.848 81.8396 10.016 82.5209 10.016ZM96.3835 12.592H94.5215V15H93.1635V12.592H87.7175V11.612L92.7295 5.2H94.2415L89.4395 11.388H93.2055V9.26H94.5215V11.388H96.3835V12.592ZM105.749 12.592H103.887V15H102.529V12.592H97.0828V11.612L102.095 5.2H103.607L98.8048 11.388H102.571V9.26H103.887V11.388H105.749V12.592ZM113.386 5.2V15H112V6.418H109.788V5.2H113.386ZM121.521 9.862C122.081 10.0767 122.511 10.3847 122.809 10.786C123.108 11.1873 123.257 11.668 123.257 12.228C123.257 12.816 123.099 13.3293 122.781 13.768C122.464 14.1973 122.011 14.5287 121.423 14.762C120.835 14.9953 120.145 15.112 119.351 15.112C118.567 15.112 117.881 14.9953 117.293 14.762C116.715 14.5287 116.267 14.1973 115.949 13.768C115.632 13.3293 115.473 12.816 115.473 12.228C115.473 11.668 115.618 11.1873 115.907 10.786C116.206 10.3847 116.635 10.0767 117.195 9.862C116.747 9.64733 116.407 9.36267 116.173 9.008C115.94 8.65333 115.823 8.23333 115.823 7.748C115.823 7.20667 115.968 6.73533 116.257 6.334C116.556 5.93267 116.971 5.62467 117.503 5.41C118.035 5.19533 118.651 5.088 119.351 5.088C120.061 5.088 120.681 5.19533 121.213 5.41C121.755 5.62467 122.17 5.93267 122.459 6.334C122.758 6.73533 122.907 7.20667 122.907 7.748C122.907 8.224 122.786 8.644 122.543 9.008C122.31 9.36267 121.969 9.64733 121.521 9.862ZM119.351 6.222C118.689 6.222 118.166 6.36667 117.783 6.656C117.401 6.936 117.209 7.31867 117.209 7.804C117.209 8.28933 117.396 8.672 117.769 8.952C118.152 9.232 118.679 9.372 119.351 9.372C120.033 9.372 120.565 9.232 120.947 8.952C121.339 8.672 121.535 8.28933 121.535 7.804C121.535 7.31867 121.335 6.936 120.933 6.656C120.541 6.36667 120.014 6.222 119.351 6.222ZM119.351 13.978C120.126 13.978 120.737 13.8193 121.185 13.502C121.633 13.1753 121.857 12.7367 121.857 12.186C121.857 11.6447 121.633 11.22 121.185 10.912C120.737 10.5947 120.126 10.436 119.351 10.436C118.577 10.436 117.97 10.5947 117.531 10.912C117.093 11.22 116.873 11.6447 116.873 12.186C116.873 12.7367 117.093 13.1753 117.531 13.502C117.97 13.8193 118.577 13.978 119.351 13.978ZM135.439 5.2V6.152L131.477 15H129.993L133.871 6.418H129.391V8.168H128.047V5.2H135.439ZM144.276 12.592H142.414V15H141.056V12.592H135.61V11.612L140.622 5.2H142.134L137.332 11.388H141.098V9.26H142.414V11.388H144.276V12.592Z" fill="#282828"/>
<path d="M18.7774 9.37749C18.7737 10.9843 18.4248 12.4019 17.7198 13.7193C17.0555 14.9625 16.1389 15.9978 14.9848 16.8142C13.9717 17.5304 12.8621 18.0203 11.6487 18.2726C10.3053 18.5509 8.96195 18.5212 7.62972 18.2021C6.92464 18.0314 6.24925 17.7716 5.61468 17.4265C5.50706 17.3671 5.41429 17.3634 5.29925 17.4005C3.90023 17.8496 2.5012 18.2949 1.10218 18.7402C0.942607 18.7921 0.786748 18.8404 0.627178 18.8998C0.515849 18.9406 0.508428 18.8998 0.538115 18.807C0.701396 18.3283 0.860967 17.8496 1.02425 17.3671C1.37308 16.3244 1.7219 15.2816 2.07815 14.2425C2.1264 14.1052 2.05589 14.0162 2.00022 13.9197C1.56233 13.1589 1.25062 12.35 1.05765 11.4964C0.63831 9.65581 0.786748 7.8523 1.49183 6.10445C1.90003 5.09507 2.48265 4.1896 3.22855 3.38804C4.17855 2.36382 5.30296 1.6105 6.60179 1.10581C7.81526 0.634525 9.06956 0.452689 10.361 0.530619C12.1311 0.638236 13.7416 1.22456 15.1555 2.29331C16.985 3.67378 18.1354 5.48843 18.5955 7.74097C18.718 8.31617 18.7625 8.89878 18.7774 9.37749ZM9.74124 2.03355C9.39612 2.0187 8.99163 2.05953 8.58714 2.1189C8.42757 2.14117 8.27171 2.17456 8.11585 2.21538C5.70374 2.82769 3.97073 4.26753 2.95022 6.53492C2.36019 7.84488 2.20062 9.22906 2.42327 10.6466C2.59769 11.7673 3.01331 12.799 3.66272 13.7304C3.73323 13.8343 3.74437 13.9234 3.70355 14.0384C3.42894 14.8437 3.16175 15.6527 2.89085 16.4617C2.87601 16.5062 2.83148 16.5582 2.8723 16.599C2.91312 16.6435 2.96507 16.5953 3.0096 16.5804C3.8223 16.3207 4.63499 16.0646 5.44026 15.7937C5.62581 15.7306 5.75941 15.7603 5.91898 15.8568C7.74105 16.9515 9.68929 17.241 11.7414 16.6955C13.3 16.2835 14.584 15.4337 15.6008 14.1794C16.5842 12.966 17.1334 11.5781 17.2448 10.0269C17.3301 8.8357 17.1446 7.67788 16.6696 6.57203C16.0721 5.18042 15.1407 4.06714 13.8826 3.2396C12.6506 2.43062 11.2887 2.01499 9.74124 2.03355Z" fill="#282828"/>
<path d="M5.3103 7.33275C5.32515 6.49779 5.65171 5.81126 6.28999 5.27689C6.47183 5.12474 6.69077 5.06165 6.93198 5.10247C7.03589 5.11732 7.14351 5.13216 7.2437 5.12103C7.49604 5.10247 7.64077 5.24349 7.7187 5.4513C7.9562 6.07474 8.18628 6.70189 8.42007 7.32533C8.4646 7.44408 8.45347 7.55169 8.3978 7.66302C8.25308 7.96361 8.023 8.1974 7.79292 8.43119C7.59253 8.63529 7.5814 8.70208 7.7187 8.95072C8.38296 10.1531 9.29956 11.0882 10.5687 11.656C10.6318 11.682 10.6875 11.7265 10.7468 11.7525C10.9064 11.8304 11.0511 11.823 11.1847 11.6857C11.4445 11.4222 11.6857 11.1402 11.9195 10.8507C12.1013 10.6244 12.1867 10.591 12.4427 10.706C13.0662 10.9954 13.6599 11.3331 14.2648 11.6597C14.4652 11.7673 14.4875 11.9158 14.4578 12.1867C14.3353 13.2888 13.4929 13.7898 12.5318 13.9494C12.2089 14.0013 11.9046 13.9716 11.6003 13.8751C10.7097 13.5931 9.83394 13.2665 9.04722 12.7544C8.31245 12.2757 7.68159 11.6783 7.12866 10.9992C6.59058 10.3349 6.11187 9.63353 5.71479 8.87279C5.49214 8.43861 5.3103 7.76322 5.3103 7.33275Z" fill="#282828"/>
</svg>
